<svg id="Calque_1" data-name="Calque 1" xmlns="http://www.w3.org/2000/svg" width="8.4667mm" height="8.4667mm" viewBox="0 0 24 24"><defs><style>.cls-1{fill:#292d32;}</style></defs><title>icon-home</title><path class="cls-1" d="M12,18.75a.75.75,0,0,1-.75-.75V15a.75.75,0,1,1,1.5,0v3A.75.75,0,0,1,12,18.75Z"/><path class="cls-1" d="M17.6,22.56H6.4a3.92,3.92,0,0,1-3.7793-3.1953L1.29,11.4037A4.127,4.127,0,0,1,2.6733,7.7831L9.6011,2.2347a3.9579,3.9579,0,0,1,4.7983.0107l6.93,5.5386A4.19,4.19,0,0,1,22.71,11.4012l-1.3311,7.9624A3.9742,3.9742,0,0,1,17.6,22.56ZM11.9888,2.9335a2.3332,2.3332,0,0,0-1.45.4717l0,0-6.93,5.55a2.6182,2.6182,0,0,0-.84,2.1968L4.1,19.1156A2.45,2.45,0,0,0,6.4,21.06H17.6A2.4517,2.4517,0,0,0,19.9,19.1146l1.33-7.958A2.72,2.72,0,0,0,20.39,8.954L13.4609,3.4159A2.3624,2.3624,0,0,0,11.9888,2.9335ZM10.07,2.82h0Z"/></svg>