<svg id="Calque_1" data-name="Calque 1" xmlns="http://www.w3.org/2000/svg" width="8.4667mm" height="8.4667mm" viewBox="0 0 24 24"><defs><style>.cls-1{fill:#292d32;}</style></defs><title>pause</title><path class="cls-1" d="M10.65,19.11V4.89C10.65,3.54,10.08,3,8.64,3H5.01C3.57,3,3,3.54,3,4.89V19.11C3,20.46,3.57,21,5.01,21H8.64C10.08,21,10.65,20.46,10.65,19.11Z"/><path class="cls-1" d="M21.0016,19.11V4.89c0-1.35-.57-1.89-2.01-1.89h-3.63c-1.43,0-2.01.54-2.01,1.89V19.11c0,1.35.57,1.89,2.01,1.89h3.63C20.4316,21,21.0016,20.46,21.0016,19.11Z"/></svg>