<?xml version="1.0" encoding="utf-8"?>
<!-- Generator: Adobe Illustrator 21.0.2, SVG Export Plug-In . SVG Version: 6.00 Build 0)  -->
<svg version="1.1" id="Calque_1" xmlns="http://www.w3.org/2000/svg" xmlns:xlink="http://www.w3.org/1999/xlink" x="0px" y="0px"
	 viewBox="0 0 357.5 72.7" style="enable-background:new 0 0 357.5 72.7;" xml:space="preserve">
<style type="text/css">
	.st0{fill:#EFEFF3;}
	.st1{fill:#EFEFF3;stroke:#EFEFF3;stroke-width:0.5;stroke-miterlimit:10;}
</style>
<title>Sans titre - 1</title>
<g>
	<path class="st0" d="M63.9,71.2c-7-0.5-13.8-1.9-20.5-4.2c-5-1.6-9.8-3.6-14.5-5.8c-5.2-2.6-10.2-5.6-14.8-9.1
		c-3.9-2.8-7.3-6.4-9.9-10.4c-1.2-1.7-1.9-3.9-2.2-6c-0.1-0.8,0-1.6,0.1-2.4c1,3.1,2.7,5.9,4.7,8.3c1.4,1.6,2.9,3.1,4.5,4.5
		c5.5,5,12.1,9.2,20.7,13.2c4.7,2.3,9.7,4.1,14.7,5.4c4.8,1.3,9.9,2.2,14.9,2.8c0.3,0,0.5,0,0.8,0c0.1,0,0.2,0,0.3,0l0.9-0.1
		l-0.6-0.8c-0.3-0.3-0.6-0.6-1.1-0.7c-7.3-0.9-14.4-2.7-21.3-5.3c-4.3-1.6-8.6-3.5-12.6-5.6c-2.4-1.3-4.9-2.8-7.4-4.4
		c-5-3.1-9.5-7.1-13.2-11.7c-2.4-3.1-3.6-5.9-3.8-8.8l0-0.1l0-0.1l0.7-0.4c0.1,0.3,0.3,0.4,0.4,0.7c0.4,0.9,0.8,1.7,1.3,2.5
		c2.4,3.8,5.4,7.1,8.9,9.9c5.9,5,12.8,9,21.9,12.9c6.1,2.7,12.7,4.7,19.2,6.1c0.3,0.1,0.6,0.1,0.8,0.2c1.1,0.3,2.2,0.4,3.4,0.4
		l1.2-0.2l-1-0.7c-0.3-0.2-0.8-0.4-1.2-0.6c-1-0.3-2.1-0.5-3-0.7c-2.2-0.5-4.4-1.1-6.6-1.7c-3.2-0.9-6.2-2-9.3-3.2
		c-2.9-1.3-5.9-2.7-8.7-4.1l-1.8-0.9c-4.3-2.2-8.4-4.7-12-7.8c-3.4-2.5-6.3-5.6-8.7-9c-1.1-1.6-2-3.4-2.6-5.2l1.2-0.6
		c2.3,3.7,5.2,7.1,8.6,9.9c5.5,4.8,12.3,8.9,21.4,13c4,1.8,8.2,3.3,12.4,4.5c1.7,0.6,3.4,0.9,5.1,1.3l1.2,0.2
		c0.7,0.3,1.4,0.1,1.7-0.5l0.2-0.3l-0.6-0.4c-0.1,0-0.1,0-0.1,0c-0.2-0.2-0.2-0.2-0.4-0.3c-5.9-1.3-11.6-3.2-17.1-5.6
		c-6.4-2.6-12.4-6-18-10c-3.6-2.5-6.8-5.4-9.6-8.7l-0.3-0.2c-1.1-1.2-1.9-2.5-2.6-3.8l1.9-0.5c0.5,0.5,1,1,1.4,1.5
		c1.1,1.2,2.3,2.4,3.5,3.5c5.1,4.6,10.8,8.5,16.9,11.5c5.5,2.9,11.3,5.2,17.2,7c1.2,0.4,2.6,0.7,4,0.8l1.2,0L55,49.7
		c-0.3-0.3-0.6-0.6-1-0.7c-0.9-0.4-1.9-0.6-3-0.9c-1.9-0.6-4-1.2-5.9-2l-0.1,0c-5.5-2.1-10.7-4.7-15.7-7.8
		C23.7,35,18.7,31,14.4,26.3c-0.2-0.2-0.3-0.3-0.4-0.6l3-0.3c3.2,3.1,6.7,5.7,10.4,8.1c3.8,2.4,7.7,4.5,11.7,6.4
		c8,3.7,11.2,4.8,12.9,4.4l1.3-0.3L51.5,43c-0.4-0.1-0.7-0.3-0.9-0.4c-6.8-2.5-14.1-5.6-20.9-9.9c-3.4-2.1-6.5-4.5-9.5-7.1
		c-0.1,0-0.2-0.2-0.2-0.2c-0.1,0-0.1,0-0.2-0.2c0.2,0,0.5,0,0.8,0c0.9,0,1.9,0,2.8,0.1c5.3,0.4,10.7,1.2,15.8,2.7
		c0.3,0.1,0.5,0.1,0.8,0.1c0.1,0,0.2,0,0.3,0l0.4,0.1l0.3-1.3l-0.9-0.4c-0.4-0.1-0.7-0.3-1.1-0.3c-8-2.1-14.2-3-20.1-3
		c-0.4,0-1-0.1-1.4-0.3c-0.5-0.5-1-1-1.5-1.7c-0.1-0.1-0.2-0.2-0.2-0.3c0.1-0.1,0.2,0,0.4-0.1c0.8-0.1,1.5-0.2,2.1-0.2
		c4.9-0.4,9.7-0.1,14.4,0.8l0.1,0c0.8,0.2,1.6,0.1,2.4-0.3l1.2-0.6l-1.4-0.3c-3.4-0.8-7-1.3-10.6-1.5c-3.4-0.3-6.8-0.2-10.2,0.5
		l-1.3-2c0.1,0,0.1-0.1,0.2,0c0.5-0.1,1-0.3,1.4-0.4c4.2-0.9,8.5-1.3,12.9-0.9l0.3,0c0.7,0.2,1.3,0,1.9-0.4l0.8-0.8l-1.1,0
		c-4.7-0.6-10.8-1.1-17.2,0.8l-0.6-1.5c1.4-0.9,2.9-1.4,4.5-1.9c2.6-0.7,5.2-1.1,7.9-1.1c0.2,0,0.5-0.1,0.7-0.2
		c0.1-0.1,0.1-0.1,0.3-0.1l2.1-0.8L25,9.8c-4.7-0.4-9.4,0.3-13.6,2.2c-0.2-0.6,0-1.3,0.5-1.6l0.5-0.4c0.6-0.5,1.3-1,2.1-1.3
		C16,8.1,17.6,7.7,19,7.3l1-0.5c0.6-0.1,1.1-0.4,1.4-0.9l1.2-1.1l-1.6,0.3C17.9,5.4,14.8,6.5,12,8c0.2-0.6,0.5-1.1,0.9-1.5
		c0.7-0.7,1.6-1.4,2.4-2c0.6-0.3,1.1-0.6,1.8-0.9c0.3-0.1,0.6-0.3,0.9-0.5l0.8-0.4L18,2.3c-0.1,0-0.2-0.1-0.3-0.1
		C17.5,2,17.3,2,17.1,2c-2.3,0.6-5.6,2-7,5.2c-0.9,2-1.7,4.1-2.4,6.2c-0.4,1.2-0.7,2.2-1.2,3.1c-0.8,1.7-1.5,3.7-2.4,6.2
		c-0.4,1-0.8,2.1-1.2,3.1c-0.7,1.6-1.4,3.2-1.8,4.9l0.5,0.2l0,0l-0.5-0.1c-1.3,2.4-1.5,5.2-0.7,7.8c0.7,2.2,1.8,4.3,3.2,6.2
		c2.5,3.3,5.5,6.4,8.8,8.9c6.5,4.9,13.7,9,21.2,12c0.8,0.3,1.7,0.7,2.5,1c4.6,1.8,9.2,3.3,14.1,4.3c4.5,1,9.2,1.7,13.8,1.9
		c0.2,0,0.4,0,0.7-0.1c0.1,0,0.1-0.1,0.2,0l1.1-0.2l-0.9-0.7C64.9,71.4,64.5,71.2,63.9,71.2z M10.3,24.4l-1.7,0.5l-0.5-1.3L9.4,23
		L10.3,24.4z M8.5,21.1l-0.8,0.3l-0.2-0.7l0.6-0.5L8.5,21.1z M6.6,25.7L6,26l-0.1-0.6l0.5-0.4L6.6,25.7z M9.9,18.9l1.4-0.8l1,1.7
		l-1.8,0.6L9.9,18.9z M9.4,16.8l-0.2-0.7l0.7-0.7l0.4,0.9L9.4,16.8z M11.4,22.1l2.1-0.6l1.7,2c-0.6,0.1-1.1,0.2-1.7,0.2
		c-0.4,0-0.8,0-1.2,0.2L11.4,22.1z"/>
	<path class="st0" d="M88.4,59.5c0-0.1,0.1-0.3,0.1-0.2c1-2.5,2-5,2.9-7.6l2.6-6.6c0-0.1,0-0.1,0.1-0.2c0.1-0.3,0.2-0.6,0.4-0.9
		c0.2-0.7,0.4-1.3,0.7-1.9c1.1-2.1,1.4-4.7,0.8-7.1c-0.5-2.2-1.5-4.3-2.9-6.2c-2.5-3.7-5.7-6.9-9.3-9.6c-3.4-2.6-7-5-10.7-6.9
		c-4.4-2.5-9-4.5-13.7-6.3c-5.1-2-10.5-3.5-15.9-4.7C39.8,0.7,36.2,0.2,32.4,0c-0.3,0-0.5,0-0.8,0.1c-0.1,0.1-0.2,0-0.3,0.1
		l-1.1,0.2l0.9,0.7c0.4,0.3,1,0.5,1.6,0.6c1,0.2,2,0.3,3.1,0.3c2.3,0.2,4.6,0.6,6.8,1c4.8,1,9.5,2.4,14.2,4.1
		c4.2,1.5,8.3,3.2,12.3,5.3c3.6,1.9,7,4,10.2,6.1c4.4,2.9,8.4,6.6,11.7,10.8c2.3,3.2,3.4,5.7,3.4,8.6l0,0.1c0,0.5,0,1.1-0.1,1.6
		c-0.9-3.1-2.6-6-4.8-8.5c-3.1-3.7-6.8-6.8-10.8-9.5c-5.7-3.9-11.8-7.2-18.2-9.7c-7.8-3.1-15.8-5.3-23.9-6.4c-1.1-0.2-2.2-0.2-3.2,0
		l-1.1,0.3l1.1,0.5c0.5,0.3,1,0.4,1.6,0.5c7.1,0.9,14.3,2.7,21,5.4c4,1.6,7.9,3.3,11.7,5.3c5.3,2.7,10.3,6,14.8,9.8
		c3.2,2.5,6,5.6,8,9.1c1,1.7,1.6,3.4,1.8,5.2c0.1,0.7,0.1,0.9-0.6,1.2c-1-2.4-2.3-4.5-3.9-6.5c-2.7-3.4-6.1-6.4-9.6-9
		c-5.9-4.2-12.2-7.7-19-10.5c-1.9-0.9-3.8-1.5-5.7-2.1c-0.8-0.3-1.7-0.6-2.6-0.9c-4.6-1.7-9.3-2.9-14.1-3.5c-0.2,0-0.4-0.1-0.7,0.1
		c-0.1,0-0.1,0.1-0.2,0l-0.7,0.1l0.4,0.7c0.2,0.4,0.5,0.6,0.9,0.7c5.8,1.1,11.5,2.7,17.1,4.8c5.2,1.9,10.2,4.3,15,7
		c5.1,2.8,9.9,6.3,14.1,10.3c2,1.8,3.7,3.9,5.2,6.1c0.9,1.3,1.6,2.8,2,4.3L88.7,45c-0.2-0.3-0.5-0.7-0.7-1c-0.7-1-1.3-1.9-2.1-2.7
		c-3.4-4.2-7.8-7.9-14-12c-3.8-2.3-7.7-4.5-11.7-6.3c-6.5-2.9-13.3-5.3-20.2-6.8c-0.3,0-0.6-0.1-0.9,0c-0.1,0-0.2,0-0.3,0l-1.2,0.1
		l0.8,0.9c0.5,0.4,1,0.7,1.6,0.8c4.1,1,8.2,2.2,12,3.8c3.1,1.2,6.3,2.6,9.3,4l0.8,0.4c4.9,2.3,9.6,5.2,13.9,8.6
		c3.9,2.9,7.3,6.4,9.9,10.4c0.1,0.3,0.3,0.6,0.4,0.8l-2.1,0.5c-2.6-3.2-5.7-6.1-8.9-8.6c-4.2-3.1-8.7-6-13.5-8.3
		c-6.1-3.1-12.5-5.6-19.1-7.4c-0.3-0.1-0.6-0.1-0.9,0c-0.1,0-0.2,0-0.3,0l-0.7-0.1l0.2,0.7c0.1,0.4,0.4,0.7,0.8,0.9
		c0.9,0.2,1.7,0.6,2.6,0.8c1.7,0.6,3.5,1,5.2,1.7c4.8,1.8,9.5,3.9,14,6.4c6.2,3.4,11.9,7.6,17,12.7c0.5,0.5,0.8,1,1.4,1.5l0.2,0.2
		l-3.2,0.4c-3.2-3.1-6.7-5.8-10.5-8.1c-3.7-2.4-7.6-4.5-11.5-6.3c-9.4-4.1-11.2-4.8-12.8-4.3L42.9,29l1.4,0.5
		c10.9,4.1,22.2,9.1,31.7,17.9c-1.4,0.1-2.8,0-4.1-0.1c-5-0.4-9.9-1.3-14.8-2.6c-0.1,0-0.1,0-0.2-0.1c-0.5-0.3-1.2-0.2-1.5,0.4
		l0,0.1L55,45.5l0.4,0.3c0.1,0,0.2,0.1,0.3,0.1c0.2,0.1,0.4,0.3,0.7,0.3c0.8,0.2,1.7,0.4,2.4,0.6c2.2,0.5,4.3,1.1,6.5,1.5
		c3.9,0.8,7.9,1.1,11.9,1.2c0.4,0,0.9,0,1.3,0.2c0.7,0.6,1.3,1.3,1.9,2c-3.3,0.4-6.7,0.6-10,0.3c-1.4-0.1-2.9-0.3-4.3-0.5
		c-1-0.2-2-0.3-3.1-0.3c-0.1,0-0.1,0-0.2-0.1c-0.7-0.3-1.4,0-1.8,0.5l-0.6,0.6l0.8,0.2c3.5,0.7,6.9,1.2,10.4,1.4
		c3.3,0.2,6.8,0.1,10.1-0.4l1.2,2c-0.3,0.1-0.6,0.1-0.8,0.2c-1,0.3-1.9,0.5-2.9,0.7c-1.4,0.2-2.7,0.4-4.2,0.5
		c-1.4,0.1-2.8,0.1-4.2,0.1l-0.2,0c-0.9,0-1.9-0.1-2.7-0.1l-1.7,0L66.1,58l0.7,0.2c0.2,0.1,0.5,0.1,0.7,0.2
		c4.8,0.5,10.5,0.6,16.3-1.1l0.8,1.4c-1,0.7-2.1,1.2-3.3,1.6c-2.9,0.9-6,1.4-9.1,1.5c-0.2,0-0.6,0.1-0.8,0.1
		c-0.1,0.1-0.1,0.1-0.3,0.1l-0.5,0.1l0.4,1.2l0.3,0c4.6,0.2,9.3-0.7,13.6-2.5c0.1,0.1,0,0.2,0.1,0.4c0,0.2,0,0.3,0,0.5l0,0.1
		c-2.4,2.6-5.6,3.5-9,4.4l-5.5,1.5l4.7-0.3c3.2-0.2,6.3-1.1,9.1-2.7c-0.9,2.1-2.8,3.1-4.8,4.3c-0.3,0.2-0.7,0.4-1,0.6L77.8,70
		l0.8,0.4c0.1,0,0.2,0.1,0.2,0.1c0.2,0.2,0.4,0.1,0.6,0.1c2.5-0.5,4.7-2.1,6-4.2c0.7-1.2,1.3-2.4,1.6-3.8
		C87.5,61.6,87.9,60.5,88.4,59.5z M85.9,48.3l1.7-0.5l0.5,1.2l-1.4,0.8L85.9,48.3z M88.2,52.4l-0.5-0.7l0.8-0.4
		C88.6,51.8,88.5,52.1,88.2,52.4L88.2,52.4z M89.7,47l0.6-0.4c0.2,0.5,0.1,0.6-0.4,0.9L89.7,47z M83.8,48.9l1.1,1.6
		c-0.6,0.3-1.2,0.6-2,0.6c-0.1,0.1-0.2,0-0.4,0.1l-1.7-2L83.8,48.9z M85.8,52.5l0.5,1.4L85,54.6L83.9,53L85.8,52.5z M86.8,56
		c0.1,0.3,0.1,0.6,0.1,0.9l-0.6,0.5l-0.3-1L86.8,56z"/>
</g>
<g>
	<path class="st1" d="M126.3,46.9h8.7c-0.1,0.9-0.2,2.2-0.2,3.9c0,3.8,0.6,7,1.7,9.5C129.8,58,126.4,53.5,126.3,46.9z M165.6,55.2
		c0-2.6-0.4-4.9-1.3-6.7c-0.9-1.8-2.2-3.3-3.9-4.6s-4-2.4-6.8-3.5l-12.1-4.6c-4.3-1.7-7.7-3.6-10-5.6s-3.5-4.5-3.5-7.5
		c0-2.4,0.6-4.4,1.9-6.2c1.3-1.7,3.1-3.1,5.5-4.1c-0.5,1.3-0.7,2.7-0.7,4.1c0,2.3,0.4,4.2,1.2,5.7s2.1,2.8,3.8,3.9
		c1.7,1.1,4,2.2,7,3.4l12.1,4.7c4.3,1.7,7.6,3.8,9.9,6.1c2.3,2.4,3.5,5.2,3.5,8.5c0,2.5-0.6,4.7-1.9,6.5c-1.3,1.9-3.1,3.4-5.6,4.6
		C165.3,58.5,165.6,56.9,165.6,55.2z M140.3,6.3c2.3-1.6,5.3-2.3,8.8-2.3c6.8,0,11.3,2.8,13.4,8.4c-4-1.4-8.5-2.1-13.6-2.1
		c-5.4,0-9.9,0.7-13.4,2.2C136.3,9.9,138,7.9,140.3,6.3z M142,66.6c-2.4-1.4-4.2-3.5-5.5-6.3c3.9,1.4,8.8,2.1,14.7,2.1
		c5.6,0,10.1-0.8,13.6-2.5c-0.9,2.7-2.6,4.8-5,6.4c-2.4,1.6-5.5,2.4-9.1,2.4C147.3,68.8,144.4,68.1,142,66.6z M163.7,20.6
		c0-3.1-0.4-5.9-1.2-8.3c3,1.1,5.3,2.6,7,4.6s2.6,4.3,2.7,7h-8.7C163.6,22.4,163.7,21.3,163.7,20.6z"/>
	<path class="st1" d="M191.6,30.2L176.8,5.1V5h8.5l12.1,22.1c1.2,2.2,1.9,3.9,2.3,5.1c0.4,1.2,0.6,2.7,0.7,4.4
		C196.5,35.7,193.6,33.6,191.6,30.2z M200.3,36.6c1,0.3,2.2,0.4,3.6,0.4c1.3,0,2.4-0.1,3.5-0.4v31.1h-7V36.6H200.3z M208,32.2
		c0.4-1.2,1.1-2.9,2.3-5L222.9,5h8.5v0.1l-15.7,25.2c-1.1,1.7-2.3,3.1-3.7,4.2c-1.4,1-2.9,1.8-4.7,2.1
		C207.4,34.9,207.6,33.4,208,32.2z"/>
	<path class="st1" d="M238.6,23.5c0-2.9,0.7-5.3,2.1-7.2c1.4-1.8,3.2-3.2,5.6-4v55.4h-7.7L238.6,23.5L238.6,23.5z M246.3,8.7
		c0-1.3,0.4-2.5,1.1-3.4c0.7-0.8,1.7-1.3,3-1.3c1.2,0,2.1,0.3,2.9,1c0.7,0.7,1.2,1.6,1.5,2.7l0.9,3.9c-1.2-0.2-2.4-0.3-3.7-0.3
		c-2.2,0-4.1,0.3-5.7,0.9V8.7z M268.4,57.7c-1.8-1.8-3.1-4.4-3.9-7.9l-8.8-38.1c2.8,0.4,5.1,1.5,6.9,3.3c1.8,1.8,3.1,4.4,3.9,7.9
		l9,38.1C272.6,60.6,270.2,59.5,268.4,57.7z M277.7,67.7c-0.7-0.7-1.2-1.8-1.5-3.1l-0.8-3.6c1.3,0.2,2.6,0.3,3.7,0.3
		c2,0,3.9-0.3,5.7-0.8V64c0,1.5-0.4,2.7-1.1,3.6c-0.7,0.9-1.8,1.3-3.1,1.3C279.4,68.8,278.4,68.4,277.7,67.7z M284.8,5h7.7v45.7
		c0,2.4-0.7,4.4-2.1,6.1c-1.4,1.7-3.3,2.9-5.6,3.7V5z"/>
	<path class="st1" d="M298.8,67.6l14-19.8c1.7-2.4,3.5-4.2,5.4-5.5c1.8-1.3,3.8-2.1,5.9-2.6c-0.3,1.8-0.8,3.7-1.6,5.5
		c-0.8,1.8-2,3.9-3.5,6.2l-10.9,16.3L298.8,67.6L298.8,67.6z M315.6,26.2L301,5.2V5h9.5l9.5,14.8c2.4,3.8,3.8,7.8,4.2,12.2
		C320.6,31.2,317.7,29.3,315.6,26.2z M324.4,36c0-1.8-0.1-3.1-0.2-4c1,0.2,2.3,0.3,3.8,0.3s2.8-0.1,3.8-0.3c-0.2,1.4-0.3,2.8-0.3,4
		s0.1,2.5,0.3,3.8c-1.1-0.2-2.4-0.3-3.8-0.3s-2.7,0.1-3.8,0.3C324.3,38.5,324.4,37.2,324.4,36z M336.5,19.9L346.2,5h8.8v0.1
		l-14.2,21.1c-1.1,1.7-2.4,3-3.9,3.9c-1.5,1-3.2,1.6-5.1,1.9C332.5,27.7,334,23.6,336.5,19.9z M337.5,52.1c-1.7-2.6-3.1-4.8-4-6.7
		s-1.5-3.8-1.8-5.6c2.2,0.3,4.2,1.2,6,2.4c1.8,1.3,3.6,3.1,5.4,5.5l14.2,19.9v0.1h-9.1L337.5,52.1z"/>
</g>
</svg>
